<svg xmlns="http://www.w3.org/2000/svg" width="22" height="21" fill="none"><path fill="#fff" d="M20.653 5.575a2.25 2.25 0 0 0-1.74-.825h-3.412a4.5 4.5 0 1 0-9 0H3.088a2.25 2.25 0 0 0-2.205 2.7L2.946 17.5a3.75 3.75 0 0 0 3.675 3h8.76a3.75 3.75 0 0 0 3.675-3l2.062-10.05a2.25 2.25 0 0 0-.465-1.875M11.001 1.75a3 3 0 0 1 3 3H8a3 3 0 0 1 3-3m6.585 15.45A2.25 2.25 0 0 1 15.38 19H6.62a2.25 2.25 0 0 1-2.205-1.8L2.353 7.15a.75.75 0 0 1 .75-.9h3.398V8.5a.75.75 0 0 0 1.5 0V6.25h6V8.5a.75.75 0 0 0 1.5 0V6.25h3.412a.75.75 0 0 1 .75.9z"/></svg>