<svg xmlns="http://www.w3.org/2000/svg" width="24" height="20" fill="none"><path fill="#A3A3A3" fill-rule="evenodd" d="M12 1.994A8.45 8.45 0 0 0 7.969.107C6.11-.206 4.057.135 2.272 1.58c-1.19.964-1.933 2.48-2.18 4.12a8.68 8.68 0 0 0 .88 5.234c.64 1.247 2.166 2.815 3.751 4.258 1.62 1.475 3.424 2.926 4.744 3.952 1.468 1.14 3.598 1.14 5.066 0 1.32-1.026 3.124-2.477 4.744-3.952 1.585-1.443 3.11-3.011 3.752-4.258a8.68 8.68 0 0 0 .879-5.234c-.247-1.64-.99-3.156-2.18-4.12C19.943.135 17.889-.206 16.03.107A8.44 8.44 0 0 0 12 1.994M7.626 1.82c-1.343-.226-2.792.01-4.097 1.067-.76.615-1.353 1.702-1.557 3.052a7.07 7.07 0 0 0 .716 4.253c.48.933 1.768 2.304 3.372 3.765 1.57 1.428 3.33 2.846 4.634 3.858.76.59 1.852.59 2.612 0 1.303-1.012 3.065-2.43 4.634-3.858 1.604-1.461 2.892-2.832 3.372-3.765.72-1.4.917-2.917.716-4.253-.204-1.35-.798-2.437-1.556-3.052-1.306-1.058-2.755-1.293-4.098-1.067-1.375.232-2.639.952-3.45 1.797-.49.51-1.359.51-1.849 0-.81-.845-2.074-1.565-3.45-1.797" clip-rule="evenodd"/></svg>