<svg width="1595" height="536" viewBox="0 0 1595 536" fill="none" xmlns="http://www.w3.org/2000/svg">
<mask id="path-1-outside-1_1176_2031" maskUnits="userSpaceOnUse" x="374.908" y="21" width="1208" height="197" fill="black">
<rect fill="white" x="374.908" y="21" width="1208" height="197"/>
<path d="M472.237 214V42.6719H376.612V22.75H591.769V42.6719H496.144V214H472.237ZM783.641 171.417C783.641 182.125 782.022 190.55 778.785 196.693C775.631 202.835 770.775 207.318 764.217 210.14C757.66 212.962 749.276 214.747 739.066 215.494C728.939 216.324 716.861 216.739 702.833 216.739C686.812 216.739 673.199 215.909 661.993 214.249C650.87 212.672 641.864 209.393 634.974 204.413C628.167 199.349 623.187 191.795 620.033 181.751C616.961 171.708 615.426 158.302 615.426 141.534C615.426 125.265 616.92 112.232 619.908 102.438C622.979 92.6426 627.918 85.2549 634.725 80.2744C641.532 75.2939 650.455 71.9736 661.495 70.3135C672.618 68.6533 686.19 67.8232 702.21 67.8232C720.555 67.8232 735.746 69.1099 747.782 71.6831C759.818 74.2563 768.783 79.1538 774.676 86.3755C780.653 93.5972 783.641 104.181 783.641 118.126V148.88H639.457C639.54 159.505 640.287 168.014 641.698 174.405C643.109 180.797 645.931 185.611 650.165 188.849C654.398 192.086 660.707 194.244 669.09 195.323C677.557 196.319 688.805 196.817 702.833 196.817C715.45 196.817 725.619 196.568 733.338 196.07C741.141 195.572 747.035 194.493 751.019 192.833C755.086 191.09 757.826 188.517 759.237 185.113C760.648 181.71 761.354 177.145 761.354 171.417H783.641ZM702.21 87.7451C688.68 87.7451 677.765 88.2432 669.464 89.2393C661.246 90.2354 654.979 92.186 650.663 95.0913C646.346 97.9136 643.399 102.147 641.822 107.792C640.328 113.436 639.54 120.865 639.457 130.079H760.731V118.126C760.731 112.149 760.025 107.21 758.614 103.309C757.286 99.3247 754.63 96.2119 750.646 93.9707C746.661 91.6465 740.768 90.0278 732.965 89.1147C725.245 88.2017 714.994 87.7451 702.21 87.7451ZM898.441 216.739C882.42 216.739 868.807 215.909 857.601 214.249C846.395 212.672 837.347 209.393 830.458 204.413C823.568 199.349 818.546 191.795 815.392 181.751C812.237 171.708 810.66 158.302 810.66 141.534C810.66 125.265 812.237 112.232 815.392 102.438C818.546 92.6426 823.568 85.2549 830.458 80.2744C837.347 75.2939 846.395 71.9736 857.601 70.3135C868.807 68.6533 882.42 67.8232 898.441 67.8232C917.616 67.8232 933.387 68.9438 945.755 71.1851C958.207 73.3433 967.42 77.8257 973.397 84.6323C979.374 91.439 982.362 101.815 982.362 115.76H959.452C959.452 107.708 957.792 101.69 954.471 97.7061C951.151 93.7217 945.091 91.0654 936.292 89.7373C927.494 88.4092 914.876 87.7451 898.441 87.7451C883.666 87.7451 871.961 88.3677 863.329 89.6128C854.696 90.8579 848.346 93.3066 844.278 96.959C840.211 100.528 837.555 105.882 836.31 113.021C835.147 120.16 834.566 129.664 834.566 141.534C834.566 153.819 835.147 163.656 836.31 171.043C837.555 178.431 840.211 183.993 844.278 187.728C848.346 191.38 854.696 193.829 863.329 195.074C871.961 196.236 883.666 196.817 898.441 196.817C910.975 196.817 921.227 196.485 929.195 195.821C937.164 195.074 943.348 193.663 947.748 191.588C952.147 189.43 955.177 186.358 956.837 182.374C958.58 178.307 959.452 172.911 959.452 166.188H982.362C982.362 177.311 980.702 186.234 977.381 192.958C974.061 199.681 968.998 204.745 962.191 208.148C955.384 211.551 946.668 213.834 936.043 214.996C925.501 216.158 912.967 216.739 898.441 216.739ZM1010.88 214V22.75H1034.78V89.6128C1038.35 84.7983 1042.75 80.7725 1047.98 77.5352C1053.29 74.2979 1060.35 71.8906 1069.15 70.3135C1078.03 68.6533 1089.65 67.8232 1104.01 67.8232C1122.77 67.8232 1137.54 69.6494 1148.34 73.3018C1159.21 76.9541 1166.93 83.4702 1171.5 92.8501C1176.06 102.23 1178.34 115.511 1178.34 132.694V214H1154.31V132.694C1154.31 122.899 1153.48 115.013 1151.82 109.037C1150.16 103.06 1147.3 98.5361 1143.23 95.4648C1139.25 92.3936 1133.73 90.3599 1126.67 89.3638C1119.62 88.2847 1110.65 87.7451 1099.78 87.7451C1083.17 87.7451 1070.14 89.1147 1060.68 91.854C1051.22 94.5933 1044.53 98.9097 1040.63 104.803C1036.73 110.614 1034.78 118.209 1034.78 127.589V214H1010.88ZM1210.59 214V70.5625H1234.5V89.6128C1238.07 84.7983 1242.47 80.7725 1247.7 77.5352C1253.01 74.2979 1260.06 71.8906 1268.86 70.3135C1277.75 68.6533 1289.37 67.8232 1303.73 67.8232C1322.49 67.8232 1337.26 69.6494 1348.05 73.3018C1358.93 76.9541 1366.65 83.4702 1371.21 92.8501C1375.78 102.23 1378.06 115.511 1378.06 132.694V214H1354.03V132.694C1354.03 122.899 1353.2 115.013 1351.54 109.037C1349.88 103.06 1347.02 98.5361 1342.95 95.4648C1338.96 92.3936 1333.44 90.3599 1326.39 89.3638C1319.33 88.2847 1310.37 87.7451 1299.49 87.7451C1282.89 87.7451 1269.86 89.1147 1260.4 91.854C1250.93 94.5933 1244.25 98.9097 1240.35 104.803C1236.45 110.614 1234.5 118.209 1234.5 127.589V214H1210.59ZM1493.36 216.739C1477.34 216.739 1463.72 215.909 1452.52 214.249C1441.31 212.672 1432.26 209.393 1425.37 204.413C1418.48 199.349 1413.46 191.795 1410.31 181.751C1407.15 171.708 1405.58 158.302 1405.58 141.534C1405.58 125.265 1407.15 112.232 1410.31 102.438C1413.46 92.6426 1418.48 85.2549 1425.37 80.2744C1432.26 75.2939 1441.31 71.9736 1452.52 70.3135C1463.72 68.6533 1477.34 67.8232 1493.36 67.8232C1509.46 67.8232 1523.07 68.6533 1534.2 70.3135C1545.4 71.9736 1554.45 75.2939 1561.34 80.2744C1568.23 85.2549 1573.25 92.6426 1576.41 102.438C1579.56 112.232 1581.14 125.265 1581.14 141.534C1581.14 158.302 1579.56 171.708 1576.41 181.751C1573.25 191.795 1568.23 199.349 1561.34 204.413C1554.45 209.393 1545.4 212.672 1534.2 214.249C1523.07 215.909 1509.46 216.739 1493.36 216.739ZM1557.23 141.534C1557.23 129.664 1556.61 120.16 1555.36 113.021C1554.2 105.882 1551.59 100.528 1547.52 96.959C1543.45 93.3066 1537.1 90.8579 1528.47 89.6128C1519.92 88.3677 1508.22 87.7451 1493.36 87.7451C1478.58 87.7451 1466.88 88.3677 1458.25 89.6128C1449.61 90.8579 1443.26 93.3066 1439.2 96.959C1435.13 100.528 1432.47 105.882 1431.23 113.021C1430.06 120.16 1429.48 129.664 1429.48 141.534C1429.48 153.819 1430.06 163.656 1431.23 171.043C1432.47 178.431 1435.13 183.993 1439.2 187.728C1443.26 191.38 1449.61 193.829 1458.25 195.074C1466.88 196.236 1478.58 196.817 1493.36 196.817C1508.22 196.817 1519.92 196.236 1528.47 195.074C1537.1 193.829 1543.45 191.38 1547.52 187.728C1551.59 183.993 1554.2 178.431 1555.36 171.043C1556.61 163.656 1557.23 153.819 1557.23 141.534Z"/>
</mask>
<path d="M472.237 214V42.6719H376.612V22.75H591.769V42.6719H496.144V214H472.237ZM783.641 171.417C783.641 182.125 782.022 190.55 778.785 196.693C775.631 202.835 770.775 207.318 764.217 210.14C757.66 212.962 749.276 214.747 739.066 215.494C728.939 216.324 716.861 216.739 702.833 216.739C686.812 216.739 673.199 215.909 661.993 214.249C650.87 212.672 641.864 209.393 634.974 204.413C628.167 199.349 623.187 191.795 620.033 181.751C616.961 171.708 615.426 158.302 615.426 141.534C615.426 125.265 616.92 112.232 619.908 102.438C622.979 92.6426 627.918 85.2549 634.725 80.2744C641.532 75.2939 650.455 71.9736 661.495 70.3135C672.618 68.6533 686.19 67.8232 702.21 67.8232C720.555 67.8232 735.746 69.1099 747.782 71.6831C759.818 74.2563 768.783 79.1538 774.676 86.3755C780.653 93.5972 783.641 104.181 783.641 118.126V148.88H639.457C639.54 159.505 640.287 168.014 641.698 174.405C643.109 180.797 645.931 185.611 650.165 188.849C654.398 192.086 660.707 194.244 669.09 195.323C677.557 196.319 688.805 196.817 702.833 196.817C715.45 196.817 725.619 196.568 733.338 196.07C741.141 195.572 747.035 194.493 751.019 192.833C755.086 191.09 757.826 188.517 759.237 185.113C760.648 181.71 761.354 177.145 761.354 171.417H783.641ZM702.21 87.7451C688.68 87.7451 677.765 88.2432 669.464 89.2393C661.246 90.2354 654.979 92.186 650.663 95.0913C646.346 97.9136 643.399 102.147 641.822 107.792C640.328 113.436 639.54 120.865 639.457 130.079H760.731V118.126C760.731 112.149 760.025 107.21 758.614 103.309C757.286 99.3247 754.63 96.2119 750.646 93.9707C746.661 91.6465 740.768 90.0278 732.965 89.1147C725.245 88.2017 714.994 87.7451 702.21 87.7451ZM898.441 216.739C882.42 216.739 868.807 215.909 857.601 214.249C846.395 212.672 837.347 209.393 830.458 204.413C823.568 199.349 818.546 191.795 815.392 181.751C812.237 171.708 810.66 158.302 810.66 141.534C810.66 125.265 812.237 112.232 815.392 102.438C818.546 92.6426 823.568 85.2549 830.458 80.2744C837.347 75.2939 846.395 71.9736 857.601 70.3135C868.807 68.6533 882.42 67.8232 898.441 67.8232C917.616 67.8232 933.387 68.9438 945.755 71.1851C958.207 73.3433 967.42 77.8257 973.397 84.6323C979.374 91.439 982.362 101.815 982.362 115.76H959.452C959.452 107.708 957.792 101.69 954.471 97.7061C951.151 93.7217 945.091 91.0654 936.292 89.7373C927.494 88.4092 914.876 87.7451 898.441 87.7451C883.666 87.7451 871.961 88.3677 863.329 89.6128C854.696 90.8579 848.346 93.3066 844.278 96.959C840.211 100.528 837.555 105.882 836.31 113.021C835.147 120.16 834.566 129.664 834.566 141.534C834.566 153.819 835.147 163.656 836.31 171.043C837.555 178.431 840.211 183.993 844.278 187.728C848.346 191.38 854.696 193.829 863.329 195.074C871.961 196.236 883.666 196.817 898.441 196.817C910.975 196.817 921.227 196.485 929.195 195.821C937.164 195.074 943.348 193.663 947.748 191.588C952.147 189.43 955.177 186.358 956.837 182.374C958.58 178.307 959.452 172.911 959.452 166.188H982.362C982.362 177.311 980.702 186.234 977.381 192.958C974.061 199.681 968.998 204.745 962.191 208.148C955.384 211.551 946.668 213.834 936.043 214.996C925.501 216.158 912.967 216.739 898.441 216.739ZM1010.88 214V22.75H1034.78V89.6128C1038.35 84.7983 1042.75 80.7725 1047.98 77.5352C1053.29 74.2979 1060.35 71.8906 1069.15 70.3135C1078.03 68.6533 1089.65 67.8232 1104.01 67.8232C1122.77 67.8232 1137.54 69.6494 1148.34 73.3018C1159.21 76.9541 1166.93 83.4702 1171.5 92.8501C1176.06 102.23 1178.34 115.511 1178.34 132.694V214H1154.31V132.694C1154.31 122.899 1153.48 115.013 1151.82 109.037C1150.16 103.06 1147.3 98.5361 1143.23 95.4648C1139.25 92.3936 1133.73 90.3599 1126.67 89.3638C1119.62 88.2847 1110.65 87.7451 1099.78 87.7451C1083.17 87.7451 1070.14 89.1147 1060.68 91.854C1051.22 94.5933 1044.53 98.9097 1040.63 104.803C1036.73 110.614 1034.78 118.209 1034.78 127.589V214H1010.88ZM1210.59 214V70.5625H1234.5V89.6128C1238.07 84.7983 1242.47 80.7725 1247.7 77.5352C1253.01 74.2979 1260.06 71.8906 1268.86 70.3135C1277.75 68.6533 1289.37 67.8232 1303.73 67.8232C1322.49 67.8232 1337.26 69.6494 1348.05 73.3018C1358.93 76.9541 1366.65 83.4702 1371.21 92.8501C1375.78 102.23 1378.06 115.511 1378.06 132.694V214H1354.03V132.694C1354.03 122.899 1353.2 115.013 1351.54 109.037C1349.88 103.06 1347.02 98.5361 1342.95 95.4648C1338.96 92.3936 1333.44 90.3599 1326.39 89.3638C1319.33 88.2847 1310.37 87.7451 1299.49 87.7451C1282.89 87.7451 1269.86 89.1147 1260.4 91.854C1250.93 94.5933 1244.25 98.9097 1240.35 104.803C1236.45 110.614 1234.5 118.209 1234.5 127.589V214H1210.59ZM1493.36 216.739C1477.34 216.739 1463.72 215.909 1452.52 214.249C1441.31 212.672 1432.26 209.393 1425.37 204.413C1418.48 199.349 1413.46 191.795 1410.31 181.751C1407.15 171.708 1405.58 158.302 1405.58 141.534C1405.58 125.265 1407.15 112.232 1410.31 102.438C1413.46 92.6426 1418.48 85.2549 1425.37 80.2744C1432.26 75.2939 1441.31 71.9736 1452.52 70.3135C1463.72 68.6533 1477.34 67.8232 1493.36 67.8232C1509.46 67.8232 1523.07 68.6533 1534.2 70.3135C1545.4 71.9736 1554.45 75.2939 1561.34 80.2744C1568.23 85.2549 1573.25 92.6426 1576.41 102.438C1579.56 112.232 1581.14 125.265 1581.14 141.534C1581.14 158.302 1579.56 171.708 1576.41 181.751C1573.25 191.795 1568.23 199.349 1561.34 204.413C1554.45 209.393 1545.4 212.672 1534.2 214.249C1523.07 215.909 1509.46 216.739 1493.36 216.739ZM1557.23 141.534C1557.23 129.664 1556.61 120.16 1555.36 113.021C1554.2 105.882 1551.59 100.528 1547.52 96.959C1543.45 93.3066 1537.1 90.8579 1528.47 89.6128C1519.92 88.3677 1508.22 87.7451 1493.36 87.7451C1478.58 87.7451 1466.88 88.3677 1458.25 89.6128C1449.61 90.8579 1443.26 93.3066 1439.2 96.959C1435.13 100.528 1432.47 105.882 1431.23 113.021C1430.06 120.16 1429.48 129.664 1429.48 141.534C1429.48 153.819 1430.06 163.656 1431.23 171.043C1432.47 178.431 1435.13 183.993 1439.2 187.728C1443.26 191.38 1449.61 193.829 1458.25 195.074C1466.88 196.236 1478.58 196.817 1493.36 196.817C1508.22 196.817 1519.92 196.236 1528.47 195.074C1537.1 193.829 1543.45 191.38 1547.52 187.728C1551.59 183.993 1554.2 178.431 1555.36 171.043C1556.61 163.656 1557.23 153.819 1557.23 141.534Z" fill="#2F4DA5"/>
<path d="M472.237 214H471.237V215H472.237V214ZM472.237 42.6719H473.237V41.6719H472.237V42.6719ZM376.612 42.6719H375.612V43.6719H376.612V42.6719ZM376.612 22.75V21.75H375.612V22.75H376.612ZM591.769 22.75H592.769V21.75H591.769V22.75ZM591.769 42.6719V43.6719H592.769V42.6719H591.769ZM496.144 42.6719V41.6719H495.144V42.6719H496.144ZM496.144 214V215H497.144V214H496.144ZM472.237 214H473.237V42.6719H472.237H471.237V214H472.237ZM472.237 42.6719V41.6719H376.612V42.6719V43.6719H472.237V42.6719ZM376.612 42.6719H377.612V22.75H376.612H375.612V42.6719H376.612ZM376.612 22.75V23.75H591.769V22.75V21.75H376.612V22.75ZM591.769 22.75H590.769V42.6719H591.769H592.769V22.75H591.769ZM591.769 42.6719V41.6719H496.144V42.6719V43.6719H591.769V42.6719ZM496.144 42.6719H495.144V214H496.144H497.144V42.6719H496.144ZM496.144 214V213H472.237V214V215H496.144V214ZM783.641 171.417H784.641V170.417H783.641V171.417ZM778.785 196.693L777.9 196.227L777.896 196.236L778.785 196.693ZM739.066 215.494L738.993 214.497L738.984 214.497L739.066 215.494ZM661.993 214.249L662.14 213.26L662.134 213.259L661.993 214.249ZM634.974 204.413L634.377 205.215L634.388 205.223L634.974 204.413ZM620.033 181.751L619.076 182.044L619.079 182.051L620.033 181.751ZM619.908 102.438L618.954 102.138L618.952 102.146L619.908 102.438ZM661.495 70.3135L661.347 69.3244L661.346 69.3246L661.495 70.3135ZM774.676 86.3755L773.902 87.0078L773.906 87.0131L774.676 86.3755ZM783.641 148.88V149.88H784.641V148.88H783.641ZM639.457 148.88V147.88H638.449L638.457 148.888L639.457 148.88ZM669.09 195.323L668.963 196.315L668.973 196.316L669.09 195.323ZM733.338 196.07L733.275 195.072L733.274 195.072L733.338 196.07ZM751.019 192.833L751.404 193.756L751.413 193.752L751.019 192.833ZM761.354 171.417V170.417H760.354V171.417H761.354ZM669.464 89.2393L669.345 88.2464L669.344 88.2465L669.464 89.2393ZM650.663 95.0913L651.21 95.9284L651.221 95.9209L650.663 95.0913ZM641.822 107.792L640.859 107.522L640.856 107.536L641.822 107.792ZM639.457 130.079L638.457 130.07L638.447 131.079H639.457V130.079ZM760.731 130.079V131.079H761.731V130.079H760.731ZM758.614 103.309L757.666 103.625L757.67 103.637L757.674 103.649L758.614 103.309ZM750.646 93.9707L750.142 94.8345L750.148 94.8384L750.155 94.8423L750.646 93.9707ZM732.965 89.1147L732.847 90.1078L732.849 90.108L732.965 89.1147ZM783.641 171.417H782.641C782.641 182.043 781.032 190.285 777.9 196.227L778.785 196.693L779.67 197.159C783.013 190.816 784.641 182.207 784.641 171.417H783.641ZM778.785 196.693L777.896 196.236C774.851 202.165 770.174 206.488 763.822 209.222L764.217 210.14L764.613 211.059C771.376 208.148 776.41 203.506 779.675 197.15L778.785 196.693ZM764.217 210.14L763.822 209.222C757.401 211.985 749.136 213.755 738.993 214.497L739.066 215.494L739.139 216.491C749.416 215.739 757.919 213.94 764.613 211.059L764.217 210.14ZM739.066 215.494L738.984 214.497C728.892 215.325 716.843 215.739 702.833 215.739V216.739V217.739C716.879 217.739 728.985 217.324 739.148 216.491L739.066 215.494ZM702.833 216.739V215.739C686.843 215.739 673.282 214.911 662.14 213.26L661.993 214.249L661.847 215.238C673.116 216.908 686.782 217.739 702.833 217.739V216.739ZM661.993 214.249L662.134 213.259C651.122 211.698 642.282 208.462 635.56 203.602L634.974 204.413L634.388 205.223C641.445 210.324 650.619 213.646 661.853 215.239L661.993 214.249ZM634.974 204.413L635.571 203.61C628.97 198.7 624.093 191.344 620.987 181.452L620.033 181.751L619.079 182.051C622.281 192.247 627.364 199.998 634.377 205.215L634.974 204.413ZM620.033 181.751L620.989 181.459C617.959 171.549 616.426 158.254 616.426 141.534H615.426H614.426C614.426 158.349 615.964 171.866 619.076 182.044L620.033 181.751ZM615.426 141.534H616.426C616.426 125.313 617.917 112.391 620.865 102.729L619.908 102.438L618.952 102.146C615.923 112.074 614.426 125.217 614.426 141.534H615.426ZM619.908 102.438L620.862 102.737C623.884 93.1003 628.716 85.9104 635.316 81.0814L634.725 80.2744L634.135 79.4674C627.121 84.5993 622.075 92.1848 618.954 102.138L619.908 102.438ZM634.725 80.2744L635.316 81.0814C641.957 76.2222 650.714 72.946 661.644 71.3024L661.495 70.3135L661.346 69.3246C650.196 71.0013 641.107 74.3657 634.135 79.4674L634.725 80.2744ZM661.495 70.3135L661.643 71.3025C672.701 69.652 686.22 68.8232 702.21 68.8232V67.8232V66.8232C686.159 66.8232 672.535 67.6546 661.347 69.3244L661.495 70.3135ZM702.21 67.8232V68.8232C720.516 68.8232 735.63 70.1077 747.573 72.661L747.782 71.6831L747.991 70.7052C735.861 68.112 720.595 66.8232 702.21 66.8232V67.8232ZM747.782 71.6831L747.573 72.661C759.458 75.202 768.192 80.0116 773.902 87.0078L774.676 86.3755L775.451 85.7432C769.373 78.296 760.178 73.3107 747.991 70.7052L747.782 71.6831ZM774.676 86.3755L773.906 87.0131C779.677 93.9861 782.641 104.304 782.641 118.126H783.641H784.641C784.641 104.057 781.629 93.2083 775.447 85.7379L774.676 86.3755ZM783.641 118.126H782.641V148.88H783.641H784.641V118.126H783.641ZM783.641 148.88V147.88H639.457V148.88V149.88H783.641V148.88ZM639.457 148.88L638.457 148.888C638.54 159.546 639.289 168.132 640.721 174.621L641.698 174.405L642.674 174.19C641.285 167.895 640.539 159.465 640.457 148.873L639.457 148.88ZM641.698 174.405L640.721 174.621C642.171 181.188 645.096 186.232 649.557 189.643L650.165 188.849L650.772 188.054C646.766 184.991 644.047 180.405 642.674 174.19L641.698 174.405ZM650.165 188.849L649.557 189.643C653.989 193.032 660.497 195.225 668.963 196.315L669.09 195.323L669.218 194.331C660.916 193.263 654.807 191.14 650.772 188.054L650.165 188.849ZM669.09 195.323L668.973 196.316C677.496 197.319 688.787 197.817 702.833 197.817V196.817V195.817C688.822 195.817 677.619 195.32 669.207 194.33L669.09 195.323ZM702.833 196.817V197.817C715.46 197.817 725.653 197.568 733.403 197.068L733.338 196.07L733.274 195.072C725.585 195.568 715.44 195.817 702.833 195.817V196.817ZM733.338 196.07L733.402 197.068C741.241 196.568 747.266 195.48 751.404 193.756L751.019 192.833L750.634 191.91C746.804 193.506 741.041 194.577 733.275 195.072L733.338 196.07ZM751.019 192.833L751.413 193.752C755.669 191.928 758.63 189.188 760.161 185.496L759.237 185.113L758.313 184.73C757.021 187.845 754.504 190.251 750.625 191.914L751.019 192.833ZM759.237 185.113L760.161 185.496C761.642 181.923 762.354 177.211 762.354 171.417H761.354H760.354C760.354 177.078 759.654 181.497 758.313 184.73L759.237 185.113ZM761.354 171.417V172.417H783.641V171.417V170.417H761.354V171.417ZM702.21 87.7451V86.7451C688.661 86.7451 677.702 87.2436 669.345 88.2464L669.464 89.2393L669.583 90.2321C677.828 89.2428 688.699 88.7451 702.21 88.7451V87.7451ZM669.464 89.2393L669.344 88.2465C661.052 89.2516 654.607 91.2311 650.104 94.2617L650.663 95.0913L651.221 95.9209C655.351 93.141 661.44 91.2191 669.584 90.232L669.464 89.2393ZM650.663 95.0913L650.115 94.2543C645.568 97.2274 642.492 101.678 640.859 107.522L641.822 107.792L642.785 108.061C644.307 102.616 647.124 98.5998 651.21 95.9283L650.663 95.0913ZM641.822 107.792L640.856 107.536C639.331 113.293 638.54 120.815 638.457 130.07L639.457 130.079L640.457 130.088C640.539 120.916 641.325 113.579 642.789 108.047L641.822 107.792ZM639.457 130.079V131.079H760.731V130.079V129.079H639.457V130.079ZM760.731 130.079H761.731V118.126H760.731H759.731V130.079H760.731ZM760.731 118.126H761.731C761.731 112.08 761.018 107.016 759.555 102.969L758.614 103.309L757.674 103.649C759.032 107.405 759.731 112.219 759.731 118.126H760.731ZM758.614 103.309L759.563 102.993C758.149 98.7512 755.316 95.4504 751.136 93.0991L750.646 93.9707L750.155 94.8423C753.944 96.9734 756.423 99.8982 757.666 103.625L758.614 103.309ZM750.646 93.9707L751.149 93.1069C746.991 90.681 740.938 89.0409 733.081 88.1215L732.965 89.1147L732.849 90.108C740.597 91.0148 746.332 92.612 750.142 94.8345L750.646 93.9707ZM732.965 89.1147L733.082 88.1217C725.307 87.202 715.011 86.7451 702.21 86.7451V87.7451V88.7451C714.976 88.7451 725.183 89.2013 732.847 90.1078L732.965 89.1147ZM857.601 214.249L857.748 213.26L857.74 213.259L857.601 214.249ZM830.458 204.413L829.865 205.218L829.872 205.223L830.458 204.413ZM945.755 71.1851L945.577 72.1691L945.585 72.1704L945.755 71.1851ZM982.362 115.76V116.76H983.362V115.76H982.362ZM959.452 115.76H958.452V116.76H959.452V115.76ZM844.278 96.959L844.938 97.7107L844.946 97.703L844.278 96.959ZM836.31 113.021L835.324 112.849L835.323 112.86L836.31 113.021ZM836.31 171.043L835.322 171.199L835.323 171.21L836.31 171.043ZM844.278 187.728L843.602 188.465L843.61 188.472L844.278 187.728ZM863.329 195.074L863.186 196.064L863.195 196.065L863.329 195.074ZM929.195 195.821L929.278 196.818L929.289 196.817L929.195 195.821ZM947.748 191.588L948.174 192.492L948.181 192.489L948.188 192.486L947.748 191.588ZM956.837 182.374L955.918 181.98L955.914 181.989L956.837 182.374ZM959.452 166.188V165.188H958.452V166.188H959.452ZM982.362 166.188H983.362V165.188H982.362V166.188ZM936.043 214.996L935.935 214.002L935.934 214.002L936.043 214.996ZM898.441 216.739V215.739C882.451 215.739 868.89 214.911 857.748 213.26L857.601 214.249L857.455 215.238C868.724 216.908 882.39 217.739 898.441 217.739V216.739ZM857.601 214.249L857.74 213.259C846.644 211.697 837.765 208.461 831.043 203.602L830.458 204.413L829.872 205.223C836.93 210.325 846.146 213.647 857.462 215.239L857.601 214.249ZM830.458 204.413L831.05 203.607C824.368 198.696 819.451 191.341 816.346 181.452L815.392 181.751L814.438 182.051C817.641 192.25 822.768 200.002 829.865 205.218L830.458 204.413ZM815.392 181.751L816.346 181.452C813.234 171.545 811.66 158.253 811.66 141.534H810.66H809.66C809.66 158.351 811.24 171.87 814.438 182.051L815.392 181.751ZM810.66 141.534H811.66C811.66 125.316 813.234 112.4 816.343 102.744L815.392 102.438L814.44 102.131C811.241 112.065 809.66 125.214 809.66 141.534H810.66ZM815.392 102.438L816.343 102.744C819.447 93.1081 824.36 85.9162 831.043 81.0848L830.458 80.2744L829.872 79.464C822.776 84.5936 817.645 92.177 814.44 102.131L815.392 102.438ZM830.458 80.2744L831.043 81.0848C837.767 76.2243 846.65 72.9468 857.748 71.3027L857.601 70.3135L857.455 69.3243C846.14 71.0004 836.927 74.3636 829.872 79.464L830.458 80.2744ZM857.601 70.3135L857.748 71.3027C868.89 69.652 882.451 68.8232 898.441 68.8232V67.8232V66.8232C882.39 66.8232 868.724 67.6547 857.455 69.3243L857.601 70.3135ZM898.441 67.8232V68.8232C917.584 68.8232 933.29 69.9425 945.577 72.169L945.755 71.1851L945.934 70.2011C933.485 67.9452 917.648 66.8232 898.441 66.8232V67.8232ZM945.755 71.1851L945.585 72.1704C957.898 74.3048 966.869 78.7138 972.646 85.2921L973.397 84.6323L974.148 83.9725C967.971 76.9376 958.515 72.3818 945.926 70.1998L945.755 71.1851ZM973.397 84.6323L972.646 85.2921C978.395 91.8399 981.362 101.932 981.362 115.76H982.362H983.362C983.362 101.698 980.352 91.038 974.148 83.9725L973.397 84.6323ZM982.362 115.76V114.76H959.452V115.76V116.76H982.362V115.76ZM959.452 115.76H960.452C960.452 107.597 958.773 101.306 955.239 97.0659L954.471 97.7061L953.703 98.3462C956.81 102.075 958.452 107.82 958.452 115.76H959.452ZM954.471 97.7061L955.239 97.0659C951.683 92.7986 945.324 90.0892 936.442 88.7485L936.292 89.7373L936.143 90.7261C944.859 92.0417 950.618 94.6447 953.703 98.3462L954.471 97.7061ZM936.292 89.7373L936.442 88.7485C927.568 87.4091 914.892 86.7451 898.441 86.7451V87.7451V88.7451C914.861 88.7451 927.419 89.4092 936.143 90.7261L936.292 89.7373ZM898.441 87.7451V86.7451C883.646 86.7451 871.887 87.368 863.186 88.623L863.329 89.6128L863.471 90.6026C872.036 89.3673 883.685 88.7451 898.441 88.7451V87.7451ZM863.329 89.6128L863.186 88.623C854.464 89.881 847.888 92.3734 843.61 96.2149L844.278 96.959L844.946 97.703C848.803 94.2399 854.928 91.8348 863.471 90.6026L863.329 89.6128ZM844.278 96.959L843.619 96.2074C839.33 99.9713 836.595 105.562 835.324 112.849L836.31 113.021L837.295 113.193C838.514 106.203 841.092 101.085 844.938 97.7106L844.278 96.959ZM836.31 113.021L835.323 112.86C834.148 120.075 833.566 129.64 833.566 141.534H834.566H835.566C835.566 129.688 836.147 120.244 837.297 113.182L836.31 113.021ZM834.566 141.534H833.566C833.566 153.843 834.148 163.738 835.322 171.199L836.31 171.043L837.297 170.888C836.147 163.574 835.566 153.796 835.566 141.534H834.566ZM836.31 171.043L835.323 171.21C836.592 178.739 839.321 184.533 843.602 188.465L844.278 187.728L844.955 186.991C841.101 183.452 838.517 178.123 837.296 170.877L836.31 171.043ZM844.278 187.728L843.61 188.472C847.888 192.314 854.464 194.806 863.186 196.064L863.329 195.074L863.471 194.084C854.928 192.852 848.803 190.447 844.946 186.984L844.278 187.728ZM863.329 195.074L863.195 196.065C871.892 197.236 883.647 197.817 898.441 197.817V196.817V195.817C883.684 195.817 872.031 195.237 863.462 194.083L863.329 195.074ZM898.441 196.817V197.817C910.989 197.817 921.271 197.485 929.278 196.818L929.195 195.821L929.112 194.825C921.182 195.486 910.961 195.817 898.441 195.817V196.817ZM929.195 195.821L929.289 196.817C937.308 196.065 943.624 194.639 948.174 192.492L947.748 191.588L947.321 190.683C943.072 192.687 937.02 194.083 929.102 194.826L929.195 195.821ZM947.748 191.588L948.188 192.486C952.774 190.236 955.994 186.997 957.76 182.759L956.837 182.374L955.914 181.989C954.36 185.719 951.52 188.623 947.307 190.69L947.748 191.588ZM956.837 182.374L957.756 182.768C959.573 178.529 960.452 172.983 960.452 166.188H959.452H958.452C958.452 172.839 957.587 178.085 955.918 181.98L956.837 182.374ZM959.452 166.188V167.188H982.362V166.188V165.188H959.452V166.188ZM982.362 166.188H981.362C981.362 177.225 979.712 185.979 976.485 192.515L977.381 192.958L978.278 193.4C981.691 186.489 983.362 177.396 983.362 166.188H982.362ZM977.381 192.958L976.485 192.515C973.262 199.04 968.358 203.946 961.744 207.254L962.191 208.148L962.638 209.042C969.637 205.543 974.86 200.323 978.278 193.4L977.381 192.958ZM962.191 208.148L961.744 207.254C955.077 210.587 946.486 212.848 935.935 214.002L936.043 214.996L936.152 215.99C946.851 214.82 955.692 212.515 962.638 209.042L962.191 208.148ZM936.043 214.996L935.934 214.002C925.439 215.159 912.943 215.739 898.441 215.739V216.739V217.739C912.992 217.739 925.564 217.157 936.153 215.99L936.043 214.996ZM1010.88 214H1009.88V215H1010.88V214ZM1010.88 22.75V21.75H1009.88V22.75H1010.88ZM1034.78 22.75H1035.78V21.75H1034.78V22.75ZM1034.78 89.6128H1033.78V92.6407L1035.58 90.2084L1034.78 89.6128ZM1047.98 77.5352L1047.46 76.6812L1047.45 76.6849L1047.98 77.5352ZM1069.15 70.3135L1069.32 71.2978L1069.33 71.2965L1069.15 70.3135ZM1148.34 73.3018L1148.02 74.249L1148.02 74.2497L1148.34 73.3018ZM1178.34 214V215H1179.34V214H1178.34ZM1154.31 214H1153.31V215H1154.31V214ZM1143.23 95.4648L1142.62 96.2569L1142.63 96.2629L1143.23 95.4648ZM1126.67 89.3638L1126.52 90.3523L1126.53 90.354L1126.67 89.3638ZM1040.63 104.803L1041.46 105.361L1041.47 105.355L1040.63 104.803ZM1034.78 214V215H1035.78V214H1034.78ZM1010.88 214H1011.88V22.75H1010.88H1009.88V214H1010.88ZM1010.88 22.75V23.75H1034.78V22.75V21.75H1010.88V22.75ZM1034.78 22.75H1033.78V89.6128H1034.78H1035.78V22.75H1034.78ZM1034.78 89.6128L1035.58 90.2084C1039.08 85.4982 1043.38 81.5579 1048.51 78.3854L1047.98 77.5352L1047.45 76.6849C1042.12 79.987 1037.62 84.0984 1033.98 89.0172L1034.78 89.6128ZM1047.98 77.5352L1048.5 78.3891C1053.67 75.2377 1060.6 72.8619 1069.32 71.2978L1069.15 70.3135L1068.97 69.3292C1060.1 70.9194 1052.91 73.358 1047.46 76.6812L1047.98 77.5352ZM1069.15 70.3135L1069.33 71.2965C1078.13 69.6522 1089.68 68.8232 1104.01 68.8232V67.8232V66.8232C1089.62 66.8232 1077.93 67.6544 1068.96 69.3305L1069.15 70.3135ZM1104.01 67.8232V68.8232C1122.72 68.8232 1137.37 70.6469 1148.02 74.249L1148.34 73.3018L1148.66 72.3545C1137.72 68.652 1122.82 66.8232 1104.01 66.8232V67.8232ZM1148.34 73.3018L1148.02 74.2497C1158.67 77.8261 1166.16 84.1742 1170.6 93.2877L1171.5 92.8501L1172.39 92.4125C1167.7 82.7663 1159.75 76.0821 1148.65 72.3538L1148.34 73.3018ZM1171.5 92.8501L1170.6 93.2877C1175.07 102.471 1177.34 115.577 1177.34 132.694H1178.34H1179.34C1179.34 115.446 1177.06 101.989 1172.39 92.4125L1171.5 92.8501ZM1178.34 132.694H1177.34V214H1178.34H1179.34V132.694H1178.34ZM1178.34 214V213H1154.31V214V215H1178.34V214ZM1154.31 214H1155.31V132.694H1154.31H1153.31V214H1154.31ZM1154.31 132.694H1155.31C1155.31 122.854 1154.48 114.868 1152.79 108.769L1151.82 109.037L1150.86 109.304C1152.48 115.158 1153.31 122.944 1153.31 132.694H1154.31ZM1151.82 109.037L1152.79 108.769C1151.08 102.628 1148.11 97.8972 1143.83 94.6668L1143.23 95.4648L1142.63 96.2629C1146.49 99.1751 1149.24 103.492 1150.86 109.304L1151.82 109.037ZM1143.23 95.4648L1143.84 94.6728C1139.67 91.4609 1133.97 89.3844 1126.81 88.3736L1126.67 89.3638L1126.53 90.354C1133.48 91.3354 1138.82 93.3262 1142.62 96.2569L1143.23 95.4648ZM1126.67 89.3638L1126.82 88.3753C1119.7 87.2857 1110.68 86.7451 1099.78 86.7451V87.7451V88.7451C1110.62 88.7451 1119.53 89.2837 1126.52 90.3523L1126.67 89.3638ZM1099.78 87.7451V86.7451C1083.14 86.7451 1070 88.1162 1060.4 90.8934L1060.68 91.854L1060.96 92.8146C1070.29 90.1133 1083.21 88.7451 1099.78 88.7451V87.7451ZM1060.68 91.854L1060.4 90.8934C1050.8 93.6729 1043.88 98.0943 1039.8 104.251L1040.63 104.803L1041.47 105.355C1045.19 99.7251 1051.63 95.5137 1060.96 92.8146L1060.68 91.854ZM1040.63 104.803L1039.8 104.246C1035.76 110.269 1033.78 118.077 1033.78 127.589H1034.78H1035.78C1035.78 118.341 1037.7 110.959 1041.46 105.361L1040.63 104.803ZM1034.78 127.589H1033.78V214H1034.78H1035.78V127.589H1034.78ZM1034.78 214V213H1010.88V214V215H1034.78V214ZM1210.59 214H1209.59V215H1210.59V214ZM1210.59 70.5625V69.5625H1209.59V70.5625H1210.59ZM1234.5 70.5625H1235.5V69.5625H1234.5V70.5625ZM1234.5 89.6128H1233.5V92.6407L1235.3 90.2084L1234.5 89.6128ZM1247.7 77.5352L1247.18 76.6812L1247.17 76.6849L1247.7 77.5352ZM1268.86 70.3135L1269.04 71.2978L1269.05 71.2965L1268.86 70.3135ZM1348.05 73.3018L1347.73 74.249L1347.73 74.2497L1348.05 73.3018ZM1378.06 214V215H1379.06V214H1378.06ZM1354.03 214H1353.03V215H1354.03V214ZM1342.95 95.4648L1342.34 96.2569L1342.35 96.2629L1342.95 95.4648ZM1326.39 89.3638L1326.24 90.3523L1326.25 90.354L1326.39 89.3638ZM1240.35 104.803L1241.18 105.361L1241.18 105.355L1240.35 104.803ZM1234.5 214V215H1235.5V214H1234.5ZM1210.59 214H1211.59V70.5625H1210.59H1209.59V214H1210.59ZM1210.59 70.5625V71.5625H1234.5V70.5625V69.5625H1210.59V70.5625ZM1234.5 70.5625H1233.5V89.6128H1234.5H1235.5V70.5625H1234.5ZM1234.5 89.6128L1235.3 90.2084C1238.79 85.4982 1243.1 81.5579 1248.22 78.3854L1247.7 77.5352L1247.17 76.6849C1241.84 79.987 1237.34 84.0984 1233.69 89.0172L1234.5 89.6128ZM1247.7 77.5352L1248.22 78.3891C1253.39 75.2377 1260.31 72.8619 1269.04 71.2978L1268.86 70.3135L1268.69 69.3292C1259.82 70.9194 1252.63 73.358 1247.18 76.6812L1247.7 77.5352ZM1268.86 70.3135L1269.05 71.2965C1277.84 69.6522 1289.4 68.8232 1303.73 68.8232V67.8232V66.8232C1289.34 66.8232 1277.65 67.6544 1268.68 69.3305L1268.86 70.3135ZM1303.73 67.8232V68.8232C1322.44 68.8232 1337.09 70.6469 1347.73 74.249L1348.05 73.3018L1348.37 72.3545C1337.43 68.652 1322.53 66.8232 1303.73 66.8232V67.8232ZM1348.05 73.3018L1347.73 74.2497C1358.38 77.8261 1365.88 84.1742 1370.31 93.2877L1371.21 92.8501L1372.11 92.4125C1367.42 82.7663 1359.47 76.0821 1348.37 72.3538L1348.05 73.3018ZM1371.21 92.8501L1370.31 93.2877C1374.78 102.471 1377.06 115.577 1377.06 132.694H1378.06H1379.06C1379.06 115.446 1376.77 101.989 1372.11 92.4125L1371.21 92.8501ZM1378.06 132.694H1377.06V214H1378.06H1379.06V132.694H1378.06ZM1378.06 214V213H1354.03V214V215H1378.06V214ZM1354.03 214H1355.03V132.694H1354.03H1353.03V214H1354.03ZM1354.03 132.694H1355.03C1355.03 122.854 1354.2 114.868 1352.5 108.769L1351.54 109.037L1350.58 109.304C1352.2 115.158 1353.03 122.944 1353.03 132.694H1354.03ZM1351.54 109.037L1352.5 108.769C1350.8 102.628 1347.83 97.8972 1343.55 94.6668L1342.95 95.4648L1342.35 96.2629C1346.2 99.1751 1348.96 103.492 1350.58 109.304L1351.54 109.037ZM1342.95 95.4648L1343.56 94.6728C1339.39 91.4609 1333.69 89.3844 1326.53 88.3736L1326.39 89.3638L1326.25 90.354C1333.2 91.3354 1338.54 93.3262 1342.34 96.2569L1342.95 95.4648ZM1326.39 89.3638L1326.54 88.3753C1319.41 87.2857 1310.39 86.7451 1299.49 86.7451V87.7451V88.7451C1310.34 88.7451 1319.25 89.2837 1326.24 90.3523L1326.39 89.3638ZM1299.49 87.7451V86.7451C1282.85 86.7451 1269.71 88.1162 1260.12 90.8934L1260.4 91.854L1260.67 92.8146C1270.01 90.1133 1282.93 88.7451 1299.49 88.7451V87.7451ZM1260.4 91.854L1260.12 90.8934C1250.52 93.6729 1243.59 98.0943 1239.52 104.251L1240.35 104.803L1241.18 105.355C1244.91 99.7251 1251.35 95.5137 1260.67 92.8146L1260.4 91.854ZM1240.35 104.803L1239.52 104.246C1235.48 110.269 1233.5 118.077 1233.5 127.589H1234.5H1235.5C1235.5 118.341 1237.42 110.959 1241.18 105.361L1240.35 104.803ZM1234.5 127.589H1233.5V214H1234.5H1235.5V127.589H1234.5ZM1234.5 214V213H1210.59V214V215H1234.5V214ZM1452.52 214.249L1452.66 213.26L1452.66 213.259L1452.52 214.249ZM1425.37 204.413L1424.78 205.218L1424.79 205.223L1425.37 204.413ZM1534.2 70.3135L1534.05 71.3025L1534.05 71.3027L1534.2 70.3135ZM1561.34 204.413L1561.93 205.223L1561.93 205.218L1561.34 204.413ZM1534.2 214.249L1534.06 213.259L1534.05 213.26L1534.2 214.249ZM1555.36 113.021L1554.38 113.182L1554.38 113.193L1555.36 113.021ZM1547.52 96.959L1546.85 97.7031L1546.86 97.7106L1547.52 96.959ZM1528.47 89.6128L1528.33 90.6024L1528.33 90.6026L1528.47 89.6128ZM1439.2 96.959L1439.85 97.7107L1439.86 97.703L1439.2 96.959ZM1431.23 113.021L1430.24 112.849L1430.24 112.86L1431.23 113.021ZM1431.23 171.043L1430.24 171.199L1430.24 171.21L1431.23 171.043ZM1439.2 187.728L1438.52 188.465L1438.53 188.472L1439.2 187.728ZM1458.25 195.074L1458.1 196.064L1458.11 196.065L1458.25 195.074ZM1528.47 195.074L1528.6 196.065L1528.61 196.064L1528.47 195.074ZM1547.52 187.728L1548.19 188.472L1548.2 188.465L1547.52 187.728ZM1555.36 171.043L1554.38 170.877L1554.38 170.888L1555.36 171.043ZM1493.36 216.739V215.739C1477.37 215.739 1463.81 214.911 1452.66 213.26L1452.52 214.249L1452.37 215.238C1463.64 216.908 1477.31 217.739 1493.36 217.739V216.739ZM1452.52 214.249L1452.66 213.259C1441.56 211.697 1432.68 208.461 1425.96 203.602L1425.37 204.413L1424.79 205.223C1431.85 210.325 1441.06 213.647 1452.38 215.239L1452.52 214.249ZM1425.37 204.413L1425.97 203.607C1419.28 198.696 1414.37 191.341 1411.26 181.452L1410.31 181.751L1409.35 182.051C1412.56 192.25 1417.68 200.002 1424.78 205.218L1425.37 204.413ZM1410.31 181.751L1411.26 181.452C1408.15 171.545 1406.58 158.253 1406.58 141.534H1405.58H1404.58C1404.58 158.351 1406.16 171.87 1409.35 182.051L1410.31 181.751ZM1405.58 141.534H1406.58C1406.58 125.316 1408.15 112.4 1411.26 102.744L1410.31 102.438L1409.36 102.131C1406.16 112.065 1404.58 125.214 1404.58 141.534H1405.58ZM1410.31 102.438L1411.26 102.744C1414.36 93.1081 1419.28 85.9162 1425.96 81.0848L1425.37 80.2744L1424.79 79.464C1417.69 84.5936 1412.56 92.177 1409.36 102.131L1410.31 102.438ZM1425.37 80.2744L1425.96 81.0848C1432.68 76.2243 1441.57 72.9468 1452.66 71.3027L1452.52 70.3135L1452.37 69.3243C1441.06 71.0004 1431.84 74.3636 1424.79 79.464L1425.37 80.2744ZM1452.52 70.3135L1452.66 71.3027C1463.81 69.652 1477.37 68.8232 1493.36 68.8232V67.8232V66.8232C1477.31 66.8232 1463.64 67.6547 1452.37 69.3243L1452.52 70.3135ZM1493.36 67.8232V68.8232C1509.43 68.8232 1522.99 69.652 1534.05 71.3025L1534.2 70.3135L1534.35 69.3244C1523.16 67.6546 1509.49 66.8232 1493.36 66.8232V67.8232ZM1534.2 70.3135L1534.05 71.3027C1545.15 72.9468 1554.03 76.2243 1560.76 81.0848L1561.34 80.2744L1561.93 79.464C1554.87 74.3636 1545.66 71.0004 1534.34 69.3243L1534.2 70.3135ZM1561.34 80.2744L1560.76 81.0848C1567.44 85.9162 1572.35 93.1081 1575.46 102.744L1576.41 102.438L1577.36 102.131C1574.15 92.177 1569.02 84.5936 1561.93 79.464L1561.34 80.2744ZM1576.41 102.438L1575.46 102.744C1578.56 112.4 1580.14 125.316 1580.14 141.534H1581.14H1582.14C1582.14 125.214 1580.56 112.065 1577.36 102.131L1576.41 102.438ZM1581.14 141.534H1580.14C1580.14 158.253 1578.56 171.545 1575.45 181.452L1576.41 181.751L1577.36 182.051C1580.56 171.87 1582.14 158.351 1582.14 141.534H1581.14ZM1576.41 181.751L1575.45 181.452C1572.35 191.341 1567.43 198.696 1560.75 203.607L1561.34 204.413L1561.93 205.218C1569.03 200.002 1574.16 192.25 1577.36 182.051L1576.41 181.751ZM1561.34 204.413L1560.76 203.602C1554.03 208.461 1545.15 211.697 1534.06 213.259L1534.2 214.249L1534.34 215.239C1545.65 213.647 1554.87 210.325 1561.93 205.223L1561.34 204.413ZM1534.2 214.249L1534.05 213.26C1522.99 214.91 1509.43 215.739 1493.36 215.739V216.739V217.739C1509.49 217.739 1523.16 216.908 1534.35 215.238L1534.2 214.249ZM1557.23 141.534H1558.23C1558.23 129.638 1557.61 120.069 1556.35 112.849L1555.36 113.021L1554.38 113.193C1555.61 120.25 1556.23 129.69 1556.23 141.534H1557.23ZM1555.36 113.021L1556.35 112.86C1555.16 105.57 1552.47 99.9745 1548.18 96.2074L1547.52 96.959L1546.86 97.7106C1550.7 101.082 1553.24 106.195 1554.38 113.182L1555.36 113.021ZM1547.52 96.959L1548.19 96.2149C1543.91 92.3734 1537.33 89.881 1528.61 88.623L1528.47 89.6128L1528.33 90.6026C1536.87 91.8348 1543 94.2399 1546.85 97.703L1547.52 96.959ZM1528.47 89.6128L1528.61 88.6232C1519.99 87.368 1508.24 86.7451 1493.36 86.7451V87.7451V88.7451C1508.2 88.7451 1519.85 89.3674 1528.33 90.6024L1528.47 89.6128ZM1493.36 87.7451V86.7451C1478.56 86.7451 1466.8 87.368 1458.1 88.623L1458.25 89.6128L1458.39 90.6026C1466.95 89.3673 1478.6 88.7451 1493.36 88.7451V87.7451ZM1458.25 89.6128L1458.1 88.623C1449.38 89.881 1442.81 92.3734 1438.53 96.2149L1439.2 96.959L1439.86 97.703C1443.72 94.2399 1449.84 91.8348 1458.39 90.6026L1458.25 89.6128ZM1439.2 96.959L1438.54 96.2074C1434.25 99.9713 1431.51 105.562 1430.24 112.849L1431.23 113.021L1432.21 113.193C1433.43 106.203 1436.01 101.085 1439.85 97.7106L1439.2 96.959ZM1431.23 113.021L1430.24 112.86C1429.07 120.075 1428.48 129.64 1428.48 141.534H1429.48H1430.48C1430.48 129.688 1431.06 120.244 1432.21 113.182L1431.23 113.021ZM1429.48 141.534H1428.48C1428.48 153.843 1429.07 163.738 1430.24 171.199L1431.23 171.043L1432.21 170.888C1431.06 163.574 1430.48 153.796 1430.48 141.534H1429.48ZM1431.23 171.043L1430.24 171.21C1431.51 178.739 1434.24 184.533 1438.52 188.465L1439.2 187.728L1439.87 186.991C1436.02 183.452 1433.43 178.123 1432.21 170.877L1431.23 171.043ZM1439.2 187.728L1438.53 188.472C1442.81 192.314 1449.38 194.806 1458.1 196.064L1458.25 195.074L1458.39 194.084C1449.84 192.852 1443.72 190.447 1439.86 186.984L1439.2 187.728ZM1458.25 195.074L1458.11 196.065C1466.81 197.236 1478.56 197.817 1493.36 197.817V196.817V195.817C1478.6 195.817 1466.95 195.237 1458.38 194.083L1458.25 195.074ZM1493.36 196.817V197.817C1508.23 197.817 1519.99 197.236 1528.6 196.065L1528.47 195.074L1528.34 194.083C1519.85 195.237 1508.2 195.817 1493.36 195.817V196.817ZM1528.47 195.074L1528.61 196.064C1537.33 194.806 1543.91 192.314 1548.19 188.472L1547.52 187.728L1546.85 186.984C1543 190.447 1536.87 192.852 1528.33 194.084L1528.47 195.074ZM1547.52 187.728L1548.2 188.465C1552.48 184.53 1555.17 178.731 1556.35 171.199L1555.36 171.043L1554.38 170.888C1553.24 178.131 1550.69 183.455 1546.84 186.991L1547.52 187.728ZM1555.36 171.043L1556.35 171.21C1557.61 163.744 1558.23 153.845 1558.23 141.534H1557.23H1556.23C1556.23 153.794 1555.61 163.568 1554.38 170.877L1555.36 171.043Z" fill="#2F4DA5" mask="url(#path-1-outside-1_1176_2031)"/>
<mask id="path-3-outside-2_1176_2031" maskUnits="userSpaceOnUse" x="995.908" y="294" width="592" height="242" fill="black">
<rect fill="white" x="995.908" y="294" width="592" height="242"/>
<path d="M1085.64 489.739C1069.62 489.739 1056.01 488.909 1044.8 487.249C1033.6 485.672 1024.55 482.393 1017.66 477.413C1010.77 472.349 1005.75 464.795 1002.59 454.751C999.438 444.708 997.861 431.302 997.861 414.534C997.861 398.265 999.438 385.232 1002.59 375.438C1005.75 365.643 1010.77 358.255 1017.66 353.274C1024.55 348.294 1033.6 344.974 1044.8 343.313C1056.01 341.653 1069.62 340.823 1085.64 340.823C1104.82 340.823 1120.59 341.944 1132.96 344.185C1145.41 346.343 1154.62 350.826 1160.6 357.632C1166.57 364.439 1169.56 374.815 1169.56 388.76H1146.65C1146.65 380.708 1144.99 374.69 1141.67 370.706C1138.35 366.722 1132.29 364.065 1123.49 362.737C1114.69 361.409 1102.08 360.745 1085.64 360.745C1070.87 360.745 1059.16 361.368 1050.53 362.613C1041.9 363.858 1035.55 366.307 1031.48 369.959C1027.41 373.528 1024.76 378.882 1023.51 386.021C1022.35 393.16 1021.77 402.664 1021.77 414.534C1021.77 426.819 1022.35 436.656 1023.51 444.043C1024.76 451.431 1027.41 456.993 1031.48 460.728C1035.55 464.38 1041.9 466.829 1050.53 468.074C1059.16 469.236 1070.87 469.817 1085.64 469.817C1098.18 469.817 1108.43 469.485 1116.4 468.821C1124.37 468.074 1130.55 466.663 1134.95 464.588C1139.35 462.43 1142.38 459.358 1144.04 455.374C1145.78 451.307 1146.65 445.911 1146.65 439.188H1169.56C1169.56 450.311 1167.9 459.234 1164.58 465.958C1161.26 472.681 1156.2 477.745 1149.39 481.148C1142.59 484.551 1133.87 486.834 1123.24 487.996C1112.7 489.158 1100.17 489.739 1085.64 489.739ZM1197.58 487V351.531H1221.48V487H1197.58ZM1197.58 319.656V295.75H1221.48V319.656H1197.58ZM1319.72 487C1305.11 487 1293.41 485.547 1284.61 482.642C1275.81 479.654 1269.42 474.424 1265.44 466.954C1261.54 459.4 1259.58 448.816 1259.58 435.203V304.341H1283.49V343.562H1371.77V363.235H1283.49V435.203C1283.49 444.5 1284.32 451.431 1285.98 455.997C1287.72 460.562 1291.17 463.55 1296.32 464.961C1301.55 466.373 1309.35 467.078 1319.72 467.078C1328.94 467.078 1336.16 466.788 1341.39 466.207C1346.7 465.625 1350.6 464.09 1353.09 461.6C1355.58 459.026 1357.16 454.834 1357.82 449.024C1358.49 443.213 1358.82 435.037 1358.82 424.495H1379.99C1379.99 438.274 1379.12 449.314 1377.37 457.615C1375.71 465.916 1372.68 472.183 1368.28 476.417C1363.97 480.65 1357.87 483.472 1349.98 484.883C1342.18 486.294 1332.09 487 1319.72 487ZM1437.39 534.812V514.891C1445.94 514.891 1452.99 514.683 1458.55 514.268C1464.2 513.936 1468.89 512.898 1472.62 511.155C1476.44 509.495 1479.85 506.756 1482.83 502.938C1485.91 499.119 1489.1 493.807 1492.42 487H1484.45L1404.77 343.562H1432.16L1500.39 469.195L1557.79 343.562H1585.81L1513.09 494.969C1509.85 501.692 1506.49 507.544 1503.01 512.525C1499.6 517.505 1495.29 521.656 1490.06 524.976C1484.91 528.296 1478.14 530.745 1469.76 532.322C1461.38 533.982 1450.59 534.812 1437.39 534.812Z"/>
</mask>
<path d="M1085.64 489.739C1069.62 489.739 1056.01 488.909 1044.8 487.249C1033.6 485.672 1024.55 482.393 1017.66 477.413C1010.77 472.349 1005.75 464.795 1002.59 454.751C999.438 444.708 997.861 431.302 997.861 414.534C997.861 398.265 999.438 385.232 1002.59 375.438C1005.75 365.643 1010.77 358.255 1017.66 353.274C1024.55 348.294 1033.6 344.974 1044.8 343.313C1056.01 341.653 1069.62 340.823 1085.64 340.823C1104.82 340.823 1120.59 341.944 1132.96 344.185C1145.41 346.343 1154.62 350.826 1160.6 357.632C1166.57 364.439 1169.56 374.815 1169.56 388.76H1146.65C1146.65 380.708 1144.99 374.69 1141.67 370.706C1138.35 366.722 1132.29 364.065 1123.49 362.737C1114.69 361.409 1102.08 360.745 1085.64 360.745C1070.87 360.745 1059.16 361.368 1050.53 362.613C1041.9 363.858 1035.55 366.307 1031.48 369.959C1027.41 373.528 1024.76 378.882 1023.51 386.021C1022.35 393.16 1021.77 402.664 1021.77 414.534C1021.77 426.819 1022.35 436.656 1023.51 444.043C1024.76 451.431 1027.41 456.993 1031.48 460.728C1035.55 464.38 1041.9 466.829 1050.53 468.074C1059.16 469.236 1070.87 469.817 1085.64 469.817C1098.18 469.817 1108.43 469.485 1116.4 468.821C1124.37 468.074 1130.55 466.663 1134.95 464.588C1139.35 462.43 1142.38 459.358 1144.04 455.374C1145.78 451.307 1146.65 445.911 1146.65 439.188H1169.56C1169.56 450.311 1167.9 459.234 1164.58 465.958C1161.26 472.681 1156.2 477.745 1149.39 481.148C1142.59 484.551 1133.87 486.834 1123.24 487.996C1112.7 489.158 1100.17 489.739 1085.64 489.739ZM1197.58 487V351.531H1221.48V487H1197.58ZM1197.58 319.656V295.75H1221.48V319.656H1197.58ZM1319.72 487C1305.11 487 1293.41 485.547 1284.61 482.642C1275.81 479.654 1269.42 474.424 1265.44 466.954C1261.54 459.4 1259.58 448.816 1259.58 435.203V304.341H1283.49V343.562H1371.77V363.235H1283.49V435.203C1283.49 444.5 1284.32 451.431 1285.98 455.997C1287.72 460.562 1291.17 463.55 1296.32 464.961C1301.55 466.373 1309.35 467.078 1319.72 467.078C1328.94 467.078 1336.16 466.788 1341.39 466.207C1346.7 465.625 1350.6 464.09 1353.09 461.6C1355.58 459.026 1357.16 454.834 1357.82 449.024C1358.49 443.213 1358.82 435.037 1358.82 424.495H1379.99C1379.99 438.274 1379.12 449.314 1377.37 457.615C1375.71 465.916 1372.68 472.183 1368.28 476.417C1363.97 480.65 1357.87 483.472 1349.98 484.883C1342.18 486.294 1332.09 487 1319.72 487ZM1437.39 534.812V514.891C1445.94 514.891 1452.99 514.683 1458.55 514.268C1464.2 513.936 1468.89 512.898 1472.62 511.155C1476.44 509.495 1479.85 506.756 1482.83 502.938C1485.91 499.119 1489.1 493.807 1492.42 487H1484.45L1404.77 343.562H1432.16L1500.39 469.195L1557.79 343.562H1585.81L1513.09 494.969C1509.85 501.692 1506.49 507.544 1503.01 512.525C1499.6 517.505 1495.29 521.656 1490.06 524.976C1484.91 528.296 1478.14 530.745 1469.76 532.322C1461.38 533.982 1450.59 534.812 1437.39 534.812Z" fill="#2F4DA5"/>
<path d="M1044.8 487.249L1044.95 486.26L1044.94 486.259L1044.8 487.249ZM1017.66 477.413L1017.07 478.218L1017.07 478.223L1017.66 477.413ZM1132.96 344.185L1132.78 345.169L1132.79 345.17L1132.96 344.185ZM1169.56 388.76V389.76H1170.56V388.76H1169.56ZM1146.65 388.76H1145.65V389.76H1146.65V388.76ZM1031.48 369.959L1032.14 370.711L1032.15 370.703L1031.48 369.959ZM1023.51 386.021L1022.53 385.849L1022.52 385.86L1023.51 386.021ZM1023.51 444.043L1022.52 444.199L1022.52 444.21L1023.51 444.043ZM1031.48 460.728L1030.8 461.465L1030.81 461.472L1031.48 460.728ZM1050.53 468.074L1050.39 469.064L1050.4 469.065L1050.53 468.074ZM1116.4 468.821L1116.48 469.818L1116.49 469.817L1116.4 468.821ZM1134.95 464.588L1135.38 465.492L1135.38 465.489L1135.39 465.486L1134.95 464.588ZM1144.04 455.374L1143.12 454.98L1143.12 454.989L1144.04 455.374ZM1146.65 439.188V438.188H1145.65V439.188H1146.65ZM1169.56 439.188H1170.56V438.188H1169.56V439.188ZM1123.24 487.996L1123.14 487.002L1123.14 487.002L1123.24 487.996ZM1085.64 489.739V488.739C1069.65 488.739 1056.09 487.911 1044.95 486.26L1044.8 487.249L1044.66 488.238C1055.93 489.908 1069.59 490.739 1085.64 490.739V489.739ZM1044.8 487.249L1044.94 486.259C1033.85 484.697 1024.97 481.461 1018.24 476.602L1017.66 477.413L1017.07 478.223C1024.13 483.325 1033.35 486.647 1044.66 488.239L1044.8 487.249ZM1017.66 477.413L1018.25 476.607C1011.57 471.696 1006.65 464.341 1003.55 454.452L1002.59 454.751L1001.64 455.051C1004.84 465.25 1009.97 473.002 1017.07 478.218L1017.66 477.413ZM1002.59 454.751L1003.55 454.452C1000.44 444.545 998.861 431.253 998.861 414.534H997.861H996.861C996.861 431.351 998.441 444.87 1001.64 455.051L1002.59 454.751ZM997.861 414.534H998.861C998.861 398.316 1000.44 385.4 1003.54 375.744L1002.59 375.438L1001.64 375.131C998.442 385.065 996.861 398.214 996.861 414.534H997.861ZM1002.59 375.438L1003.54 375.744C1006.65 366.108 1011.56 358.916 1018.24 354.085L1017.66 353.274L1017.07 352.464C1009.98 357.594 1004.85 365.177 1001.64 375.131L1002.59 375.438ZM1017.66 353.274L1018.24 354.085C1024.97 349.224 1033.85 345.947 1044.95 344.303L1044.8 343.313L1044.66 342.324C1033.34 344 1024.13 347.364 1017.07 352.464L1017.66 353.274ZM1044.8 343.313L1044.95 344.303C1056.09 342.652 1069.65 341.823 1085.64 341.823V340.823V339.823C1069.59 339.823 1055.93 340.655 1044.66 342.324L1044.8 343.313ZM1085.64 340.823V341.823C1104.78 341.823 1120.49 342.942 1132.78 345.169L1132.96 344.185L1133.13 343.201C1120.69 340.945 1104.85 339.823 1085.64 339.823V340.823ZM1132.96 344.185L1132.79 345.17C1145.1 347.305 1154.07 351.714 1159.85 358.292L1160.6 357.632L1161.35 356.973C1155.17 349.938 1145.72 345.382 1133.13 343.2L1132.96 344.185ZM1160.6 357.632L1159.85 358.292C1165.6 364.84 1168.56 374.932 1168.56 388.76H1169.56H1170.56C1170.56 374.698 1167.55 364.038 1161.35 356.973L1160.6 357.632ZM1169.56 388.76V387.76H1146.65V388.76V389.76H1169.56V388.76ZM1146.65 388.76H1147.65C1147.65 380.597 1145.97 374.306 1142.44 370.066L1141.67 370.706L1140.9 371.346C1144.01 375.075 1145.65 380.82 1145.65 388.76H1146.65ZM1141.67 370.706L1142.44 370.066C1138.88 365.799 1132.52 363.089 1123.64 361.749L1123.49 362.737L1123.34 363.726C1132.06 365.042 1137.82 367.645 1140.9 371.346L1141.67 370.706ZM1123.49 362.737L1123.64 361.749C1114.77 360.409 1102.09 359.745 1085.64 359.745V360.745V361.745C1102.06 361.745 1114.62 362.409 1123.34 363.726L1123.49 362.737ZM1085.64 360.745V359.745C1070.85 359.745 1059.09 360.368 1050.39 361.623L1050.53 362.613L1050.67 363.603C1059.24 362.367 1070.89 361.745 1085.64 361.745V360.745ZM1050.53 362.613L1050.39 361.623C1041.67 362.881 1035.09 365.373 1030.81 369.215L1031.48 369.959L1032.15 370.703C1036 367.24 1042.13 364.835 1050.67 363.603L1050.53 362.613ZM1031.48 369.959L1030.82 369.207C1026.53 372.971 1023.8 378.562 1022.53 385.849L1023.51 386.021L1024.5 386.193C1025.72 379.203 1028.29 374.085 1032.14 370.711L1031.48 369.959ZM1023.51 386.021L1022.52 385.86C1021.35 393.075 1020.77 402.64 1020.77 414.534H1021.77H1022.77C1022.77 402.688 1023.35 393.244 1024.5 386.182L1023.51 386.021ZM1021.77 414.534H1020.77C1020.77 426.843 1021.35 436.738 1022.52 444.199L1023.51 444.043L1024.5 443.888C1023.35 436.574 1022.77 426.796 1022.77 414.534H1021.77ZM1023.51 444.043L1022.52 444.21C1023.79 451.739 1026.52 457.533 1030.8 461.465L1031.48 460.728L1032.16 459.991C1028.3 456.452 1025.72 451.123 1024.5 443.877L1023.51 444.043ZM1031.48 460.728L1030.81 461.472C1035.09 465.314 1041.67 467.806 1050.39 469.064L1050.53 468.074L1050.67 467.084C1042.13 465.852 1036 463.447 1032.15 459.984L1031.48 460.728ZM1050.53 468.074L1050.4 469.065C1059.09 470.236 1070.85 470.817 1085.64 470.817V469.817V468.817C1070.89 468.817 1059.23 468.237 1050.66 467.083L1050.53 468.074ZM1085.64 469.817V470.817C1098.19 470.817 1108.47 470.485 1116.48 469.818L1116.4 468.821L1116.31 467.825C1108.38 468.486 1098.16 468.817 1085.64 468.817V469.817ZM1116.4 468.821L1116.49 469.817C1124.51 469.065 1130.83 467.639 1135.38 465.492L1134.95 464.588L1134.52 463.683C1130.27 465.687 1124.22 467.083 1116.3 467.826L1116.4 468.821ZM1134.95 464.588L1135.39 465.486C1139.97 463.236 1143.2 459.997 1144.96 455.759L1144.04 455.374L1143.12 454.989C1141.56 458.719 1138.72 461.623 1134.51 463.69L1134.95 464.588ZM1144.04 455.374L1144.96 455.768C1146.77 451.529 1147.65 445.983 1147.65 439.188H1146.65H1145.65C1145.65 445.839 1144.79 451.085 1143.12 454.98L1144.04 455.374ZM1146.65 439.188V440.188H1169.56V439.188V438.188H1146.65V439.188ZM1169.56 439.188H1168.56C1168.56 450.225 1166.91 458.979 1163.69 465.515L1164.58 465.958L1165.48 466.4C1168.89 459.489 1170.56 450.396 1170.56 439.188H1169.56ZM1164.58 465.958L1163.69 465.515C1160.46 472.04 1155.56 476.946 1148.94 480.254L1149.39 481.148L1149.84 482.042C1156.84 478.543 1162.06 473.323 1165.48 466.4L1164.58 465.958ZM1149.39 481.148L1148.94 480.254C1142.28 483.587 1133.69 485.848 1123.14 487.002L1123.24 487.996L1123.35 488.99C1134.05 487.82 1142.89 485.515 1149.84 482.042L1149.39 481.148ZM1123.24 487.996L1123.14 487.002C1112.64 488.159 1100.14 488.739 1085.64 488.739V489.739V490.739C1100.19 490.739 1112.77 490.157 1123.35 488.99L1123.24 487.996ZM1197.58 487H1196.58V488H1197.58V487ZM1197.58 351.531V350.531H1196.58V351.531H1197.58ZM1221.48 351.531H1222.48V350.531H1221.48V351.531ZM1221.48 487V488H1222.48V487H1221.48ZM1197.58 319.656H1196.58V320.656H1197.58V319.656ZM1197.58 295.75V294.75H1196.58V295.75H1197.58ZM1221.48 295.75H1222.48V294.75H1221.48V295.75ZM1221.48 319.656V320.656H1222.48V319.656H1221.48ZM1197.58 487H1198.58V351.531H1197.58H1196.58V487H1197.58ZM1197.58 351.531V352.531H1221.48V351.531V350.531H1197.58V351.531ZM1221.48 351.531H1220.48V487H1221.48H1222.48V351.531H1221.48ZM1221.48 487V486H1197.58V487V488H1221.48V487ZM1197.58 319.656H1198.58V295.75H1197.58H1196.58V319.656H1197.58ZM1197.58 295.75V296.75H1221.48V295.75V294.75H1197.58V295.75ZM1221.48 295.75H1220.48V319.656H1221.48H1222.48V295.75H1221.48ZM1221.48 319.656V318.656H1197.58V319.656V320.656H1221.48V319.656ZM1284.61 482.642L1284.29 483.589L1284.3 483.592L1284.61 482.642ZM1265.44 466.954L1264.55 467.413L1264.55 467.424L1265.44 466.954ZM1259.58 304.341V303.341H1258.58V304.341H1259.58ZM1283.49 304.341H1284.49V303.341H1283.49V304.341ZM1283.49 343.562H1282.49V344.562H1283.49V343.562ZM1371.77 343.562H1372.77V342.562H1371.77V343.562ZM1371.77 363.235V364.235H1372.77V363.235H1371.77ZM1283.49 363.235V362.235H1282.49V363.235H1283.49ZM1285.98 455.997L1285.04 456.338L1285.04 456.346L1285.05 456.353L1285.98 455.997ZM1296.32 464.961L1296.05 465.926L1296.06 465.927L1296.32 464.961ZM1341.39 466.207L1341.28 465.212L1341.28 465.213L1341.39 466.207ZM1353.09 461.6L1353.8 462.307L1353.81 462.301L1353.81 462.295L1353.09 461.6ZM1358.82 424.495V423.495H1357.82V424.495H1358.82ZM1379.99 424.495H1380.99V423.495H1379.99V424.495ZM1377.37 457.615L1376.39 457.41L1376.39 457.419L1377.37 457.615ZM1368.28 476.417L1367.59 475.696L1367.58 475.703L1368.28 476.417ZM1349.98 484.883L1349.8 483.899L1349.8 483.899L1349.98 484.883ZM1319.72 487V486C1305.17 486 1293.58 484.551 1284.93 481.693L1284.61 482.642L1284.3 483.592C1293.24 486.544 1305.06 488 1319.72 488V487ZM1284.61 482.642L1284.93 481.695C1276.35 478.78 1270.17 473.707 1266.32 466.483L1265.44 466.954L1264.55 467.424C1268.67 475.142 1275.28 480.528 1284.29 483.589L1284.61 482.642ZM1265.44 466.954L1266.33 466.495C1262.53 459.143 1260.58 448.743 1260.58 435.203H1259.58H1258.58C1258.58 448.89 1260.54 459.656 1264.55 467.413L1265.44 466.954ZM1259.58 435.203H1260.58V304.341H1259.58H1258.58V435.203H1259.58ZM1259.58 304.341V305.341H1283.49V304.341V303.341H1259.58V304.341ZM1283.49 304.341H1282.49V343.562H1283.49H1284.49V304.341H1283.49ZM1283.49 343.562V344.562H1371.77V343.562V342.562H1283.49V343.562ZM1371.77 343.562H1370.77V363.235H1371.77H1372.77V343.562H1371.77ZM1371.77 363.235V362.235H1283.49V363.235V364.235H1371.77V363.235ZM1283.49 363.235H1282.49V435.203H1283.49H1284.49V363.235H1283.49ZM1283.49 435.203H1282.49C1282.49 444.53 1283.32 451.604 1285.04 456.338L1285.98 455.997L1286.92 455.655C1285.32 451.258 1284.49 444.47 1284.49 435.203H1283.49ZM1285.98 455.997L1285.05 456.353C1286.92 461.247 1290.63 464.439 1296.05 465.926L1296.32 464.961L1296.58 463.997C1291.71 462.661 1288.53 459.877 1286.92 455.64L1285.98 455.997ZM1296.32 464.961L1296.06 465.927C1301.42 467.373 1309.32 468.078 1319.72 468.078V467.078V466.078C1309.37 466.078 1301.68 465.372 1296.58 463.996L1296.32 464.961ZM1319.72 467.078V468.078C1328.95 468.078 1336.22 467.787 1341.5 467.2L1341.39 466.207L1341.28 465.213C1336.1 465.788 1328.92 466.078 1319.72 466.078V467.078ZM1341.39 466.207L1341.5 467.201C1346.92 466.607 1351.08 465.023 1353.8 462.307L1353.09 461.6L1352.39 460.893C1350.12 463.157 1346.48 464.644 1341.28 465.212L1341.39 466.207ZM1353.09 461.6L1353.81 462.295C1356.53 459.491 1358.14 455.039 1358.82 449.137L1357.82 449.024L1356.83 448.91C1356.18 454.63 1354.64 458.562 1352.37 460.904L1353.09 461.6ZM1357.82 449.024L1358.82 449.137C1359.49 443.271 1359.82 435.05 1359.82 424.495H1358.82H1357.82C1357.82 435.024 1357.49 443.156 1356.83 448.91L1357.82 449.024ZM1358.82 424.495V425.495H1379.99V424.495V423.495H1358.82V424.495ZM1379.99 424.495H1378.99C1378.99 438.242 1378.12 449.205 1376.39 457.41L1377.37 457.615L1378.35 457.821C1380.12 449.424 1380.99 438.306 1380.99 424.495H1379.99ZM1377.37 457.615L1376.39 457.419C1374.76 465.595 1371.8 471.649 1367.59 475.696L1368.28 476.417L1368.98 477.137C1373.57 472.717 1376.67 466.237 1378.35 457.811L1377.37 457.615ZM1368.28 476.417L1367.58 475.703C1363.45 479.756 1357.56 482.512 1349.8 483.899L1349.98 484.883L1350.16 485.868C1358.18 484.432 1364.48 481.544 1368.98 477.13L1368.28 476.417ZM1349.98 484.883L1349.8 483.899C1342.08 485.296 1332.06 486 1319.72 486V487V488C1332.12 488 1342.27 487.293 1350.16 485.867L1349.98 484.883ZM1437.39 534.812H1436.39V535.812H1437.39V534.812ZM1437.39 514.891V513.891H1436.39V514.891H1437.39ZM1458.55 514.268L1458.5 513.27L1458.49 513.27L1458.48 513.271L1458.55 514.268ZM1472.62 511.155L1472.23 510.238L1472.21 510.243L1472.2 510.249L1472.62 511.155ZM1482.83 502.938L1482.06 502.311L1482.05 502.321L1482.83 502.938ZM1492.42 487L1493.32 487.438L1494.02 486H1492.42V487ZM1484.45 487L1483.58 487.486L1483.86 488H1484.45V487ZM1404.77 343.562V342.562H1403.07L1403.89 344.048L1404.77 343.562ZM1432.16 343.562L1433.04 343.085L1432.75 342.562H1432.16V343.562ZM1500.39 469.195L1499.51 469.672L1500.47 471.432L1501.3 469.61L1500.39 469.195ZM1557.79 343.562V342.562H1557.15L1556.88 343.147L1557.79 343.562ZM1585.81 343.562L1586.71 343.995L1587.4 342.562H1585.81V343.562ZM1513.09 494.969L1513.99 495.403L1513.99 495.402L1513.09 494.969ZM1503.01 512.525L1502.19 511.951L1502.18 511.961L1503.01 512.525ZM1490.06 524.976L1489.52 524.132L1489.51 524.136L1490.06 524.976ZM1469.76 532.322L1469.58 531.339L1469.57 531.341L1469.76 532.322ZM1437.39 534.812H1438.39V514.891H1437.39H1436.39V534.812H1437.39ZM1437.39 514.891V515.891C1445.95 515.891 1453.03 515.683 1458.63 515.265L1458.55 514.268L1458.48 513.271C1452.95 513.683 1445.92 513.891 1437.39 513.891V514.891ZM1458.55 514.268L1458.61 515.266C1464.34 514.929 1469.16 513.874 1473.05 512.061L1472.62 511.155L1472.2 510.249C1468.61 511.923 1464.06 512.943 1458.5 513.27L1458.55 514.268ZM1472.62 511.155L1473.02 512.072C1477.02 510.336 1480.55 507.482 1483.62 503.554L1482.83 502.938L1482.05 502.321C1479.14 506.03 1475.87 508.655 1472.23 510.238L1472.62 511.155ZM1482.83 502.938L1483.61 503.564C1486.75 499.665 1489.98 494.28 1493.32 487.438L1492.42 487L1491.52 486.562C1488.22 493.333 1485.06 498.573 1482.06 502.311L1482.83 502.938ZM1492.42 487V486H1484.45V487V488H1492.42V487ZM1484.45 487L1485.33 486.514L1405.64 343.077L1404.77 343.562L1403.89 344.048L1483.58 487.486L1484.45 487ZM1404.77 343.562V344.562H1432.16V343.562V342.562H1404.77V343.562ZM1432.16 343.562L1431.28 344.04L1499.51 469.672L1500.39 469.195L1501.27 468.718L1433.04 343.085L1432.16 343.562ZM1500.39 469.195L1501.3 469.61L1558.7 343.978L1557.79 343.562L1556.88 343.147L1499.48 468.779L1500.39 469.195ZM1557.79 343.562V344.562H1585.81V343.562V342.562H1557.79V343.562ZM1585.81 343.562L1584.9 343.13L1512.19 494.536L1513.09 494.969L1513.99 495.402L1586.71 343.995L1585.81 343.562ZM1513.09 494.969L1512.19 494.535C1508.97 501.22 1505.64 507.024 1502.19 511.951L1503.01 512.525L1503.82 513.098C1507.35 508.065 1510.74 502.164 1513.99 495.403L1513.09 494.969ZM1503.01 512.525L1502.18 511.961C1498.86 516.826 1494.64 520.882 1489.52 524.132L1490.06 524.976L1490.59 525.82C1495.93 522.429 1500.35 518.185 1503.83 513.089L1503.01 512.525ZM1490.06 524.976L1489.51 524.136C1484.51 527.364 1477.88 529.778 1469.58 531.34L1469.76 532.322L1469.95 533.305C1478.41 531.713 1485.31 529.229 1490.6 525.816L1490.06 524.976ZM1469.76 532.322L1469.57 531.341C1461.27 532.984 1450.55 533.812 1437.39 533.812V534.812V535.812C1450.62 535.812 1461.48 534.981 1469.95 533.303L1469.76 532.322Z" fill="#2F4DA5" mask="url(#path-3-outside-2_1176_2031)"/>
<path d="M362.917 117.511L289.155 72.1324L286.737 158.701L362.917 117.511ZM992.916 482.511L992.562 475.02C693.892 489.134 474.102 473.773 319.273 442.822C164.028 411.787 75.4639 365.344 37.4324 318.583C18.626 295.46 12.4327 272.623 15.9367 251.411C19.4704 230.02 33.08 208.996 56.407 190.167C103.183 152.41 187.133 125.14 295.536 123.124L295.397 115.625L295.257 108.126C185.021 110.177 97.3206 137.866 46.9856 178.495C21.757 198.859 5.44576 222.885 1.13731 248.966C-3.20079 275.227 4.84256 302.285 25.7954 328.048C67.2824 379.057 160.328 426.344 316.333 457.531C472.755 488.8 693.856 504.152 993.27 490.003L992.916 482.511Z" fill="#2F4DA5"/>
</svg>
