<svg xmlns="http://www.w3.org/2000/svg" width="24" height="24" fill="none"><g clip-path="url(#a)"><mask id="b" width="24" height="24" x="0" y="0" maskUnits="userSpaceOnUse" style="mask-type:luminance"><path fill="#fff" d="M0 0h24v24H0z"/></mask><g fill="#2F4DA5" fill-rule="evenodd" clip-rule="evenodd" mask="url(#b)"><path d="M11.143.857c0-.473.384-.857.857-.857A12 12 0 1 1 0 12a13.25 13.25 0 0 1 3.666-9.163.857.857 0 0 1 1.24 1.183A11.54 11.54 0 0 0 1.714 12a10.288 10.288 0 0 0 12.293 10.088 10.284 10.284 0 0 0 7.496-14.024A10.29 10.29 0 0 0 12 1.714a.857.857 0 0 1-.857-.857"/><path d="M4.078 2.596a.857.857 0 0 1 1.04.624l.857 3.428a.857.857 0 0 1-1.663.416l-.65-2.597-2.597.65A.857.857 0 1 1 .65 3.452zM12.002 5.143c.473 0 .857.383.857.857v6.327l3.983 1.992a.857.857 0 1 1-.766 1.533l-4.458-2.229a.86.86 0 0 1-.473-.766V6c0-.474.383-.857.857-.857"/></g></g><defs><clipPath id="a"><path fill="#fff" d="M0 0h24v24H0z"/></clipPath></defs></svg>