<svg xmlns="http://www.w3.org/2000/svg" width="24" height="24" fill="none"><g clip-path="url(#a)"><path fill="#2F4DA5" d="M9.06-.057a.75.75 0 0 1 .656.044l8.71 5.028c.231.134.373.38.373.647v4.003c2.105.43 4.128 2.074 4.342 5.098.187 2.626-1.628 5.467-5.01 8.222a.745.745 0 0 1-.944.001c-1.559-1.27-2.774-2.552-3.62-3.816l-3.85 2.224a.75.75 0 0 1-.748 0L.261 16.366l-.001-.001a.75.75 0 0 1-.373-.646V5.662c0-.266.143-.513.374-.647L8.97-.013zm8.6 11.098c-.936 0-1.888.299-2.624.918-.73.613-1.272 1.561-1.367 2.91-.086 1.208.417 2.445 1.24 3.626.758 1.086 1.765 2.09 2.75 2.937.987-.846 1.994-1.851 2.752-2.937.823-1.181 1.326-2.418 1.24-3.626-.095-1.349-.636-2.297-1.366-2.91-.736-.62-1.688-.918-2.624-.918M1.382 6.093v9.195l7.961 4.596 3.488-2.014c-.494-1.053-.723-2.096-.652-3.107.241-3.407 2.77-5.055 5.127-5.204V6.093L15.13 4.836 7.167 9.433v1.964a.75.75 0 0 1-.373.646.75.75 0 0 1-.746 0l-2.88-1.661a.75.75 0 0 1-.373-.647V7.34c0-.266.143-.512.374-.645l7.588-4.382-1.414-.817zm16.279 5.85c1.845 0 3.345 1.5 3.345 3.345s-1.5 3.345-3.345 3.345a3.35 3.35 0 0 1-3.345-3.345c0-1.845 1.5-3.345 3.345-3.345m0 1.493c-1.02 0-1.852.831-1.852 1.852 0 1.02.832 1.851 1.852 1.851s1.851-.831 1.851-1.851-.83-1.852-1.851-1.852M4.29 7.772v1.532l1.384.8V9.002c0-.267.142-.514.373-.647l7.588-4.382-1.384-.799z"/></g><defs><clipPath id="a"><path fill="#fff" d="M0 0h24v24H0z"/></clipPath></defs></svg>