<svg xmlns="http://www.w3.org/2000/svg" width="27" height="24" fill="none"><path fill="#2F4DA5" fill-rule="evenodd" d="m10.835.939 9.01 4.175a.7.7 0 0 1 .343.937.717.717 0 0 1-.949.338l-8.984-4.164c-.442-.204-.735-.34-.97-.427-.226-.083-.341-.1-.422-.099-.218.004-.43.074-.607.2-.065.046-.148.127-.278.328-.135.208-.289.49-.518.915L5.877 6.065a.717.717 0 0 1-.965.29.7.7 0 0 1-.292-.954l1.595-2.948c.213-.394.393-.726.563-.987.178-.273.375-.518.645-.71A2.5 2.5 0 0 1 8.839.29c.333-.005.64.075.948.189.293.109.638.269 1.048.459" clip-rule="evenodd"/><path fill="#2F4DA5" fill-rule="evenodd" d="M6.109 5.03H19.05c.723 0 1.31 0 1.784.038.49.04.924.123 1.328.326.637.32 1.155.832 1.48 1.462.205.398.29.827.33 1.31.039.47.039 1.048.039 1.762v1.149c0 .389-.32.704-.713.704a.71.71 0 0 1-.713-.704V9.958c0-.75 0-1.272-.034-1.677-.033-.396-.094-.62-.18-.786a1.95 1.95 0 0 0-.857-.846c-.168-.085-.394-.145-.796-.178-.41-.033-.937-.033-1.698-.033H6.14c-.76 0-1.288 0-1.698.033-.401.033-.627.093-.796.178a1.95 1.95 0 0 0-.857.846c-.086.167-.147.39-.18.786-.033.405-.034.926-.034 1.677v6.694c0 .389-.319.704-.713.704a.71.71 0 0 1-.713-.704V9.929c0-.715 0-1.293.04-1.762.04-.484.124-.913.33-1.311a3.37 3.37 0 0 1 1.48-1.462c.403-.203.837-.287 1.327-.326.475-.039 1.061-.039 1.784-.039m17.19 11.296c.394 0 .713.315.713.704v1.307c0 .714 0 1.293-.039 1.762-.04.484-.125.913-.33 1.31a3.37 3.37 0 0 1-1.48 1.463c-.404.203-.838.286-1.328.326-.475.038-1.06.038-1.783.038h-7.997a.71.71 0 0 1-.713-.704c0-.389.32-.704.713-.704h7.966c.76 0 1.288 0 1.698-.034.402-.032.628-.092.796-.177.37-.186.67-.482.857-.847.086-.166.147-.39.18-.786.033-.405.034-.926.034-1.677V17.03c0-.389.32-.704.713-.704" clip-rule="evenodd"/><path fill="#2F4DA5" fill-rule="evenodd" d="M3.828 9.255c0-.389.32-.704.713-.704h5.347c.394 0 .713.315.713.704s-.319.704-.713.704H4.541a.71.71 0 0 1-.713-.704M9.199 17.454a.7.7 0 0 1 0 .996l-4.324 4.27a1.25 1.25 0 0 1-1.753 0l-1.976-1.95a.7.7 0 0 1 0-.997.72.72 0 0 1 1.009 0l1.844 1.822 4.192-4.14a.72.72 0 0 1 1.008 0" clip-rule="evenodd"/><path stroke="#2F4DA5" stroke-linejoin="round" d="M19.532 11.166h5.117a.5.5 0 0 1 .5.5v4.667a.5.5 0 0 1-.5.5h-5.117a2.834 2.834 0 0 1 0-5.667Z"/></svg>